<svg width="19" height="19" viewBox="0 0 19 19" fill="none" xmlns="http://www.w3.org/2000/svg">
<rect width="19" height="19" rx="2" fill="white"/>
<rect width="19" height="19" rx="2" fill="#EE4D4D" fill-opacity="0.15"/>
<path d="M14.8869 12.8317L10.2307 5.38936C10.08 5.1484 9.80148 5 9.50001 5C9.19858 5 8.92001 5.14837 8.76928 5.38936L4.11311 12.8317C3.96231 13.0726 3.96231 13.3696 4.11304 13.6106C4.26377 13.8515 4.54234 14 4.84384 14H14.1562C14.4576 14 14.7363 13.8516 14.887 13.6106C15.0377 13.3696 15.0377 13.0726 14.8869 12.8317ZM4.84384 13.2211L9.50001 5.77883L14.1562 13.2211H4.84384Z" fill="#EE4D4D"/>
<path d="M8.91592 8.46022L9.15791 11.0173C9.17203 11.1678 9.30147 11.2919 9.47016 11.3055C9.65911 11.3208 9.82566 11.1917 9.84215 11.0173L10.0841 8.46022C10.0867 8.43033 10.0871 8.39685 10.0841 8.36604C10.056 8.06824 9.77162 7.84797 9.44903 7.87394C9.12644 7.89997 8.88775 8.16249 8.91592 8.46022Z" fill="#EE4D4D"/>
<path d="M9.5 12.3575C9.76729 12.3575 9.98397 12.1575 9.98397 11.9108C9.98397 11.6641 9.76729 11.4641 9.5 11.4641C9.2327 11.4641 9.01602 11.6641 9.01602 11.9108C9.01602 12.1575 9.2327 12.3575 9.5 12.3575Z" fill="#EE4D4D"/>
</svg>
