<svg width="24" height="24" viewBox="0 0 24 24" fill="none" xmlns="http://www.w3.org/2000/svg">
<g clip-path="url(#clip0_2_208)">
<path d="M15.5625 10.7109C15.1795 10.6875 14.7073 10.6875 14.1 10.6875H8.9C8.29274 10.6875 7.82051 10.6875 7.4375 10.7109M15.5625 10.7109C16.0405 10.7401 16.3796 10.8057 16.6691 10.9532C17.1277 11.1869 17.5006 11.5597 17.7343 12.0184C18 12.5398 18 13.2223 18 14.5875V15.725C18 17.0902 18 17.7727 17.7343 18.2941C17.5006 18.7528 17.1277 19.1256 16.6691 19.3593C16.1477 19.625 15.4651 19.625 14.1 19.625H8.9C7.53484 19.625 6.85234 19.625 6.33088 19.3593C5.87222 19.1256 5.49936 18.7528 5.26569 18.2941C5 17.7727 5 17.0902 5 15.725V14.5875C5 13.2223 5 12.5398 5.26569 12.0184C5.49936 11.5597 5.87222 11.1869 6.33088 10.9532C6.62037 10.8057 6.95951 10.7401 7.4375 10.7109M15.5625 10.7109V9.0625C15.5625 6.81885 13.7437 5 11.5 5C9.25636 5 7.4375 6.81885 7.4375 9.0625V10.7109" stroke="#606876" stroke-width="1.7" stroke-linecap="round" stroke-linejoin="round"/>
</g>
<defs>
<clipPath id="clip0_2_208">
<rect width="24" height="24" fill="white"/>
</clipPath>
</defs>
</svg>
