<svg width="18" height="19" viewBox="0 0 18 19" fill="none" xmlns="http://www.w3.org/2000/svg">
<path d="M15.0333 3.91668L14.2458 15.7294C14.1769 16.7639 14.1423 17.2813 13.9189 17.6735C13.7222 18.0189 13.4254 18.2965 13.0678 18.4698C12.6615 18.6667 12.143 18.6667 11.1061 18.6667H7.16054C6.12362 18.6667 5.60515 18.6667 5.19891 18.4698C4.84125 18.2965 4.5445 18.0189 4.34776 17.6735C4.1243 17.2813 4.08981 16.7639 4.02084 15.7294L3.23333 3.91668M1.26666 3.91668H17M13.0667 3.91668L12.8006 3.11828C12.5427 2.34457 12.4136 1.95772 12.1745 1.67171C11.9633 1.41914 11.6921 1.22364 11.3857 1.10314C11.0386 0.966675 10.631 0.966675 9.81538 0.966675H8.4513C7.63572 0.966675 7.22803 0.966675 6.88102 1.10314C6.57462 1.22364 6.30338 1.41914 6.09217 1.67171C5.85298 1.95772 5.72404 2.34457 5.46613 3.11828L5.2 3.91668M11.1 7.85001V14.7334M7.16667 7.85001V14.7334" stroke="#EE4D4D" stroke-width="1.47842" stroke-linecap="round" stroke-linejoin="round"/>
</svg>
