<svg width="18" height="17" viewBox="0 0 18 17" fill="none" xmlns="http://www.w3.org/2000/svg">
<g clip-path="url(#clip0_5_1606)">
<path d="M13.6468 3.2103L12.9661 12.8252C12.9065 13.6672 12.8766 14.0883 12.6835 14.4076C12.5134 14.6887 12.2569 14.9146 11.9478 15.0557C11.5966 15.216 11.1484 15.216 10.2521 15.216H6.84153C5.94521 15.216 5.49704 15.216 5.14588 15.0557C4.83672 14.9146 4.58021 14.6887 4.41015 14.4076C4.21699 14.0883 4.18718 13.6672 4.12756 12.8252L3.44683 3.2103M1.74683 3.2103H15.3468M11.9468 3.2103L11.7168 2.56045C11.4939 1.9307 11.3823 1.61583 11.1756 1.38303C10.993 1.17745 10.7586 1.01833 10.4938 0.92025C10.1938 0.809174 9.84138 0.809174 9.13639 0.809174H7.95727C7.25228 0.809174 6.89987 0.809174 6.59991 0.92025C6.33506 1.01833 6.10059 1.17745 5.91802 1.38303C5.71127 1.61583 5.59981 1.9307 5.37687 2.56045L5.14683 3.2103M10.2468 6.41181V12.0145M6.84683 6.41181V12.0145" stroke="white" stroke-width="1.34044" stroke-linecap="round" stroke-linejoin="round"/>
</g>
<defs>
<clipPath id="clip0_5_1606">
<rect width="18" height="16.875" fill="white" transform="translate(0 0.0625)"/>
</clipPath>
</defs>
</svg>
